<svg width="136" height="33" viewBox="0 0 136 33" fill="none" xmlns="http://www.w3.org/2000/svg">
<path d="M43.976 4.31669C43.976 5.30223 43.6826 6.08832 43.096 6.66322C42.439 7.35544 41.5708 7.70742 40.5148 7.70742C39.4941 7.70742 38.6376 7.35544 37.9219 6.65148C37.2062 5.94753 36.8542 5.06758 36.8542 4.03511C36.8542 2.9909 37.2062 2.12269 37.9219 1.41873C38.6376 0.714772 39.4941 0.362793 40.5148 0.362793C41.0193 0.362793 41.5004 0.456654 41.9579 0.656109C42.4155 0.855564 42.7792 1.11368 43.0608 1.4422L42.439 2.06402C41.9697 1.51259 41.3361 1.23101 40.5148 1.23101C39.7757 1.23101 39.1304 1.48913 38.5907 2.01709C38.051 2.53333 37.7811 3.21382 37.7811 4.04684C37.7811 4.87986 38.051 5.56035 38.5907 6.07659C39.1304 6.59282 39.7757 6.86267 40.5148 6.86267C41.3009 6.86267 41.9579 6.60455 42.4859 6.07659C42.8262 5.73634 43.0256 5.2553 43.0725 4.6452H40.5148V3.80045H43.929C43.9525 3.97644 43.976 4.15243 43.976 4.31669Z" fill="white" stroke="white" stroke-width="0.302598" stroke-miterlimit="10"/>
<path d="M49.3838 1.38335H46.1808V3.61255H49.067V4.4573H46.1808V6.6865H49.3838V7.55472H45.2773V0.515137H49.3838V1.38335Z" fill="white" stroke="white" stroke-width="0.302598" stroke-miterlimit="10"/>
<path d="M53.1994 7.55472H52.296V1.38335H50.325V0.515137H55.1588V1.38335H53.1877V7.55472H53.1994Z" fill="white" stroke="white" stroke-width="0.302598" stroke-miterlimit="10"/>
<path d="M58.6648 7.55472V0.515137H59.5682V7.55472H58.6648Z" fill="white" stroke="white" stroke-width="0.302598" stroke-miterlimit="10"/>
<path d="M63.5823 7.55472H62.6788V1.38335H60.7078V0.515137H65.5416V1.38335H63.5705V7.55472H63.5823Z" fill="white" stroke="white" stroke-width="0.302598" stroke-miterlimit="10"/>
<path d="M74.7035 6.63975C74.0113 7.35544 73.1548 7.70742 72.1223 7.70742C71.0898 7.70742 70.2334 7.35544 69.5411 6.63975C68.8489 5.92406 68.5087 5.05585 68.5087 4.03511C68.5087 3.01437 68.8489 2.13442 69.5411 1.43046C70.2334 0.714772 71.0898 0.362793 72.1223 0.362793C73.1431 0.362793 73.9995 0.714772 74.7035 1.43046C75.3957 2.14615 75.7477 3.01437 75.7477 4.03511C75.736 5.06758 75.3957 5.93579 74.7035 6.63975ZM70.2099 6.05312C70.7261 6.58109 71.3714 6.83921 72.1223 6.83921C72.8732 6.83921 73.5185 6.58109 74.0347 6.05312C74.551 5.52515 74.8208 4.85639 74.8208 4.03511C74.8208 3.21382 74.5627 2.54506 74.0347 2.01709C73.5185 1.48913 72.8732 1.23101 72.1223 1.23101C71.3714 1.23101 70.7261 1.48913 70.2099 2.01709C69.6937 2.54506 69.4238 3.21382 69.4238 4.03511C69.4238 4.85639 69.6937 5.52515 70.2099 6.05312Z" fill="white" stroke="white" stroke-width="0.302598" stroke-miterlimit="10"/>
<path d="M77.0154 7.55472V0.515137H78.1182L81.5442 5.99428H81.5794L81.5442 4.63329V0.515137H82.4476V7.55472H81.509L77.9305 1.81746H77.8953L77.9305 3.17845V7.55472H77.0154Z" fill="white" stroke="white" stroke-width="0.302598" stroke-miterlimit="10"/>
<path d="M68.2876 17.821C65.5305 17.821 63.2778 19.9211 63.2778 22.8074C63.2778 25.6818 65.5305 27.7937 68.2876 27.7937C71.0448 27.7937 73.2975 25.6818 73.2975 22.8074C73.2975 19.9211 71.0448 17.821 68.2876 17.821ZM68.2876 25.8344C66.7741 25.8344 65.4718 24.5907 65.4718 22.8074C65.4718 21.0123 66.7741 19.7803 68.2876 19.7803C69.8011 19.7803 71.1035 21.0123 71.1035 22.8074C71.1035 24.5907 69.7894 25.8344 68.2876 25.8344ZM57.3528 17.821C54.5956 17.821 52.343 19.9211 52.343 22.8074C52.343 25.6818 54.5956 27.7937 57.3528 27.7937C60.11 27.7937 62.3626 25.6818 62.3626 22.8074C62.3626 19.9211 60.11 17.821 57.3528 17.821ZM57.3528 25.8344C55.8393 25.8344 54.537 24.5907 54.537 22.8074C54.537 21.0123 55.8393 19.7803 57.3528 19.7803C58.8663 19.7803 60.1686 21.0123 60.1686 22.8074C60.1686 24.5907 58.8663 25.8344 57.3528 25.8344ZM44.3531 19.358V21.4698H49.4216C49.269 22.6548 48.8701 23.5348 48.2718 24.1331C47.5326 24.8723 46.3828 25.6818 44.3648 25.6818C41.2439 25.6818 38.8035 23.1711 38.8035 20.0502C38.8035 16.9293 41.2439 14.4185 44.3648 14.4185C46.0426 14.4185 47.2745 15.0755 48.1779 15.932L49.6679 14.442C48.4008 13.2335 46.723 12.3066 44.3531 12.3066C40.0824 12.3066 36.4922 15.7795 36.4922 20.0619C36.4922 24.3326 40.0824 27.8172 44.3531 27.8172C46.6644 27.8172 48.4008 27.0663 49.7618 25.6466C51.158 24.2505 51.5921 22.2794 51.5921 20.6955C51.5921 20.2027 51.5569 19.7451 51.4748 19.3697H44.3531V19.358ZM97.5136 21.0005C97.103 19.8859 95.8359 17.821 93.2429 17.821C90.6735 17.821 88.5382 19.839 88.5382 22.8074C88.5382 25.5997 90.65 27.7937 93.4893 27.7937C95.7772 27.7937 97.103 26.3975 97.6427 25.588L95.9414 24.4499C95.3783 25.2829 94.6039 25.8344 93.4893 25.8344C92.3747 25.8344 91.5769 25.3181 91.0724 24.3209L97.7483 21.5637L97.5136 21.0005ZM90.7087 22.6666C90.65 20.7424 92.1987 19.7569 93.3133 19.7569C94.1815 19.7569 94.9207 20.191 95.1671 20.8128L90.7087 22.6666ZM85.2882 27.5004H87.4822V12.8346H85.2882V27.5004ZM81.698 18.9356H81.6159C81.1231 18.349 80.1845 17.821 78.9878 17.821C76.4887 17.821 74.2009 20.015 74.2009 22.8308C74.2009 25.6232 76.4887 27.8055 78.9878 27.8055C80.1728 27.8055 81.1231 27.2775 81.6159 26.6674H81.6863V27.3831C81.6863 29.2955 80.6656 30.3162 79.023 30.3162C77.6855 30.3162 76.8525 29.3542 76.5122 28.5446L74.5998 29.3424C75.1512 30.6682 76.6061 32.2873 79.023 32.2873C81.5924 32.2873 83.763 30.7738 83.763 27.0898V18.126H81.6863V18.9356H81.698ZM79.1755 25.8344C77.662 25.8344 76.3949 24.5672 76.3949 22.8308C76.3949 21.0709 77.662 19.7921 79.1755 19.7921C80.6656 19.7921 81.8388 21.0827 81.8388 22.8308C81.8506 24.5672 80.6773 25.8344 79.1755 25.8344ZM107.791 12.8346H102.547V27.5004H104.741V21.9391H107.803C110.232 21.9391 112.614 20.1792 112.614 17.3869C112.614 14.5945 110.208 12.8346 107.791 12.8346ZM107.838 19.8977H104.729V14.8644H107.838C109.481 14.8644 110.408 16.2253 110.408 17.3751C110.408 18.5249 109.481 19.8977 107.838 19.8977ZM121.378 17.7975C119.794 17.7975 118.151 18.5015 117.471 20.0384L119.418 20.848C119.829 20.0385 120.603 19.7686 121.413 19.7686C122.539 19.7686 123.701 20.4491 123.713 21.6576V21.8101C123.314 21.5872 122.469 21.2469 121.425 21.2469C119.325 21.2469 117.201 22.3967 117.201 24.5438C117.201 26.5031 118.914 27.7703 120.838 27.7703C122.305 27.7703 123.126 27.1132 123.63 26.3389H123.701V27.4769H125.813V21.857C125.824 19.2524 123.877 17.7975 121.378 17.7975ZM121.108 25.8344C120.392 25.8344 119.395 25.4707 119.395 24.5907C119.395 23.4644 120.639 23.0303 121.718 23.0303C122.68 23.0303 123.138 23.2415 123.713 23.523C123.548 24.8723 122.375 25.8344 121.108 25.8344ZM133.521 18.1143L131.01 24.4734H130.94L128.335 18.1143H125.977L129.884 27.0076L127.655 31.9471H129.943L135.961 18.1143H133.521ZM113.81 27.5004H116.004V12.8346H113.81V27.5004Z" fill="white"/>
<path d="M0.589446 1.1489C0.2492 1.51261 0.0497437 2.07578 0.0497437 2.79147V28.7441C0.0497437 29.4715 0.2492 30.0346 0.589446 30.3866L0.671574 30.4688L15.2083 15.9438V15.7678V15.5918L0.671574 1.06677L0.589446 1.1489Z" fill="url(#paint0_linear_28_1144)"/>
<path d="M20.0536 20.7894L15.208 15.9438V15.7678V15.5918L20.0536 10.7462L20.1592 10.8049L25.8964 14.0666C27.539 14.9934 27.539 16.5187 25.8964 17.4573L20.1592 20.719L20.0536 20.7894Z" fill="url(#paint1_linear_28_1144)"/>
<path d="M20.1599 20.7189L15.2088 15.7677L0.589905 30.3866C1.12961 30.9615 2.02129 31.0319 3.03029 30.457L20.1599 20.7189Z" fill="url(#paint2_linear_28_1144)"/>
<path d="M20.1607 10.8165L3.01931 1.07837C2.0103 0.503475 1.11862 0.573872 0.578918 1.14877L15.2095 15.7676L20.1607 10.8165Z" fill="url(#paint3_linear_28_1144)"/>
<path opacity="0.2" d="M20.0554 20.613L3.01966 30.2925C2.06932 30.8322 1.21283 30.797 0.673132 30.3042L0.591003 30.3863L0.673132 30.4684C1.22457 30.9612 2.06932 30.9964 3.01966 30.4567L20.161 20.7186L20.0554 20.613Z" fill="black"/>
<path opacity="0.12" d="M0.590606 30.2219C0.250359 29.8582 0.0509033 29.295 0.0509033 28.5793V28.7553C0.0509033 29.4828 0.250359 30.0459 0.590606 30.3979L0.672734 30.3158L0.590606 30.2219Z" fill="black"/>
<path opacity="0.12" d="M25.8976 17.2929L20.043 20.6133L20.1486 20.7189L25.8858 17.4572C26.7071 16.9879 27.1177 16.3778 27.1177 15.7677C27.0591 16.3191 26.6484 16.8706 25.8976 17.2929Z" fill="black"/>
<path opacity="0.25" d="M3.01818 1.2427L25.8968 14.2425C26.636 14.6648 27.0584 15.2045 27.1287 15.7677C27.1287 15.1576 26.7181 14.5358 25.8968 14.0782L3.01818 1.07845C1.37561 0.151568 0.0380859 0.925923 0.0380859 2.80315V2.97913C0.0380859 1.09018 1.38734 0.315826 3.01818 1.2427Z" fill="white"/>
<defs>
<linearGradient id="paint0_linear_28_1144" x1="13.9174" y1="2.52127" x2="-5.77281" y2="22.2114" gradientUnits="userSpaceOnUse">
<stop stop-color="#00A0FF"/>
<stop offset="0.00657445" stop-color="#00A1FF"/>
<stop offset="0.2601" stop-color="#00BEFF"/>
<stop offset="0.5122" stop-color="#00D2FF"/>
<stop offset="0.7604" stop-color="#00DFFF"/>
<stop offset="1" stop-color="#00E3FF"/>
</linearGradient>
<linearGradient id="paint1_linear_28_1144" x1="28.0369" y1="15.7694" x2="-0.352396" y2="15.7694" gradientUnits="userSpaceOnUse">
<stop stop-color="#FFE000"/>
<stop offset="0.4087" stop-color="#FFBD00"/>
<stop offset="0.7754" stop-color="#FFA500"/>
<stop offset="1" stop-color="#FF9C00"/>
</linearGradient>
<linearGradient id="paint2_linear_28_1144" x1="17.4696" y1="18.4616" x2="-9.23184" y2="45.1631" gradientUnits="userSpaceOnUse">
<stop stop-color="#FF3A44"/>
<stop offset="1" stop-color="#C31162"/>
</linearGradient>
<linearGradient id="paint3_linear_28_1144" x1="-3.09656" y1="-7.49091" x2="8.82684" y2="4.43238" gradientUnits="userSpaceOnUse">
<stop stop-color="#32A071"/>
<stop offset="0.0685" stop-color="#2DA771"/>
<stop offset="0.4762" stop-color="#15CF74"/>
<stop offset="0.8009" stop-color="#06E775"/>
<stop offset="1" stop-color="#00F076"/>
</linearGradient>
</defs>
</svg>
