<svg width="352" height="108" viewBox="0 0 352 108" fill="none" xmlns="http://www.w3.org/2000/svg">
<path d="M36.1237 31.4303L29.9998 37.627L28.2614 30.1968H20.9216L19.1832 37.6238L13.0592 31.4303C11.324 33.859 10.2949 36.842 10.2949 40.0686C10.2949 48.1204 16.669 54.6632 24.5915 54.8202C32.514 54.6632 38.8881 48.1204 38.8881 40.0686C38.8881 36.842 37.8621 33.859 36.1237 31.4303Z" fill="black"/>
<path d="M13.4453 74.1076C16.67 75.8807 20.2245 76.8197 23.7982 76.9477H25.3818C30.4931 76.8003 35.5507 75.0077 39.6305 71.6593C45.4166 66.9141 48.4227 60.5355 48.5646 52.7018L48.5953 51.0412L46.9618 51.1964C35.7884 52.2634 28.3496 57.6372 24.7798 67.1935C20.6425 55.8058 9.81796 51.0645 2.39072 51.4486L1.07552 51.5146L0.998828 52.8454C0.619221 59.5771 4.3501 69.1024 13.4376 74.1037L13.4453 74.1076Z" fill="black"/>
<path d="M75.9979 71V36.0909H89.3615C91.8842 36.0909 93.9808 36.4886 95.6513 37.2841C97.3331 38.0682 98.5888 39.142 99.4183 40.5057C100.259 41.8693 100.68 43.4148 100.68 45.142C100.68 46.5625 100.407 47.7784 99.8615 48.7898C99.3161 49.7898 98.5831 50.6023 97.6626 51.2273C96.7422 51.8523 95.7138 52.3011 94.5774 52.5739V52.9148C95.8161 52.983 97.0036 53.3636 98.1399 54.0568C99.2876 54.7386 100.225 55.7045 100.952 56.9545C101.68 58.2045 102.043 59.7159 102.043 61.4886C102.043 63.2955 101.606 64.9205 100.731 66.3636C99.8558 67.7955 98.5376 68.9261 96.7763 69.7557C95.0149 70.5852 92.799 71 90.1286 71H75.9979ZM82.3217 65.7159H89.1229C91.4183 65.7159 93.0717 65.2784 94.0831 64.4034C95.1058 63.517 95.6172 62.3807 95.6172 60.9943C95.6172 59.9602 95.3615 59.0284 94.8501 58.1989C94.3388 57.358 93.6115 56.6989 92.6683 56.2216C91.7251 55.733 90.6001 55.4886 89.2933 55.4886H82.3217V65.7159ZM82.3217 50.9375H88.5774C89.6683 50.9375 90.6513 50.7386 91.5263 50.3409C92.4013 49.9318 93.0888 49.358 93.5888 48.6193C94.1001 47.8693 94.3558 46.983 94.3558 45.9602C94.3558 44.608 93.8786 43.4943 92.924 42.6193C91.9808 41.7443 90.5774 41.3068 88.7138 41.3068H82.3217V50.9375ZM122.613 51.0057V56.0852H106.897V51.0057H122.613ZM160.041 53.5455C160.041 57.3068 159.337 60.5284 157.928 63.2102C156.53 65.8807 154.621 67.9261 152.2 69.3466C149.791 70.767 147.058 71.4773 144.002 71.4773C140.945 71.4773 138.206 70.767 135.786 69.3466C133.377 67.9148 131.467 65.8636 130.058 63.1932C128.661 60.5114 127.962 57.2955 127.962 53.5455C127.962 49.7841 128.661 46.5682 130.058 43.8977C131.467 41.2159 133.377 39.1648 135.786 37.7443C138.206 36.3239 140.945 35.6136 144.002 35.6136C147.058 35.6136 149.791 36.3239 152.2 37.7443C154.621 39.1648 156.53 41.2159 157.928 43.8977C159.337 46.5682 160.041 49.7841 160.041 53.5455ZM153.683 53.5455C153.683 50.8977 153.269 48.6648 152.439 46.8466C151.621 45.017 150.484 43.6364 149.03 42.7045C147.575 41.7614 145.899 41.2898 144.002 41.2898C142.104 41.2898 140.428 41.7614 138.973 42.7045C137.519 43.6364 136.377 45.017 135.547 46.8466C134.729 48.6648 134.32 50.8977 134.32 53.5455C134.32 56.1932 134.729 58.4318 135.547 60.2614C136.377 62.0795 137.519 63.4602 138.973 64.4034C140.428 65.3352 142.104 65.8011 144.002 65.8011C145.899 65.8011 147.575 65.3352 149.03 64.4034C150.484 63.4602 151.621 62.0795 152.439 60.2614C153.269 58.4318 153.683 56.1932 153.683 53.5455ZM181.907 59.9886V44.8182H188.077V71H182.094V66.3466H181.822C181.231 67.8125 180.259 69.0114 178.907 69.9432C177.566 70.875 175.912 71.3409 173.947 71.3409C172.231 71.3409 170.714 70.9602 169.395 70.1989C168.089 69.4261 167.066 68.3068 166.327 66.8409C165.589 65.3636 165.219 63.5795 165.219 61.4886V44.8182H171.39V60.5341C171.39 62.1932 171.844 63.5114 172.753 64.4886C173.662 65.4659 174.856 65.9545 176.333 65.9545C177.242 65.9545 178.123 65.733 178.975 65.2898C179.827 64.8466 180.526 64.1875 181.072 63.3125C181.628 62.4261 181.907 61.3182 181.907 59.9886ZM211.366 80.8182V66.875H211.11C210.792 67.5114 210.332 68.1875 209.73 68.9034C209.127 69.608 208.332 70.2102 207.343 70.7102C206.355 71.2102 205.11 71.4602 203.61 71.4602C201.553 71.4602 199.713 70.9318 198.088 69.875C196.463 68.8182 195.178 67.2841 194.235 65.2727C193.292 63.2614 192.821 60.8182 192.821 57.9432C192.821 55.0341 193.298 52.5795 194.252 50.5795C195.218 48.5682 196.519 47.0511 198.156 46.0284C199.792 44.9943 201.616 44.4773 203.627 44.4773C205.161 44.4773 206.423 44.7386 207.411 45.2614C208.4 45.7727 209.184 46.392 209.764 47.1193C210.343 47.8352 210.792 48.5114 211.11 49.1477H211.485V44.8182H217.553V80.8182H211.366ZM205.332 66.3977C206.639 66.3977 207.752 66.0455 208.673 65.3409C209.593 64.625 210.292 63.6307 210.769 62.358C211.247 61.0852 211.485 59.6023 211.485 57.9091C211.485 56.2159 211.247 54.7443 210.769 53.4943C210.303 52.2443 209.61 51.2727 208.69 50.5795C207.781 49.8864 206.661 49.5398 205.332 49.5398C203.957 49.5398 202.809 49.8977 201.889 50.6136C200.968 51.3295 200.275 52.3182 199.809 53.5795C199.343 54.8409 199.11 56.2841 199.11 57.9091C199.11 59.5455 199.343 61.0057 199.809 62.2898C200.286 63.5625 200.985 64.5682 201.906 65.3068C202.838 66.0341 203.98 66.3977 205.332 66.3977ZM240.054 59.9886V44.8182H246.224V71H240.241V66.3466H239.969C239.378 67.8125 238.406 69.0114 237.054 69.9432C235.713 70.875 234.06 71.3409 232.094 71.3409C230.378 71.3409 228.861 70.9602 227.543 70.1989C226.236 69.4261 225.213 68.3068 224.474 66.8409C223.736 65.3636 223.366 63.5795 223.366 61.4886V44.8182H229.537V60.5341C229.537 62.1932 229.991 63.5114 230.9 64.4886C231.81 65.4659 233.003 65.9545 234.48 65.9545C235.389 65.9545 236.27 65.733 237.122 65.2898C237.974 64.8466 238.673 64.1875 239.219 63.3125C239.775 62.4261 240.054 61.3182 240.054 59.9886ZM263.632 71.5114C261.007 71.5114 258.74 70.9659 256.831 69.875C254.934 68.7727 253.473 67.2159 252.451 65.2045C251.428 63.1818 250.917 60.8011 250.917 58.0625C250.917 55.3693 251.428 53.0057 252.451 50.9716C253.485 48.9261 254.928 47.3352 256.78 46.1989C258.632 45.0511 260.809 44.4773 263.309 44.4773C264.922 44.4773 266.445 44.7386 267.877 45.2614C269.32 45.7727 270.593 46.5682 271.695 47.6477C272.809 48.7273 273.684 50.1023 274.32 51.7727C274.956 53.4318 275.274 55.4091 275.274 57.7045V59.5966H253.814V55.4375H269.36C269.348 54.2557 269.093 53.2045 268.593 52.2841C268.093 51.3523 267.394 50.6193 266.496 50.0852C265.61 49.5511 264.576 49.2841 263.394 49.2841C262.132 49.2841 261.024 49.5909 260.07 50.2045C259.115 50.8068 258.371 51.6023 257.837 52.5909C257.314 53.5682 257.047 54.642 257.036 55.8125V59.4432C257.036 60.9659 257.314 62.2727 257.871 63.3636C258.428 64.4432 259.206 65.2727 260.206 65.8523C261.206 66.4205 262.377 66.7045 263.718 66.7045C264.615 66.7045 265.428 66.5795 266.155 66.3295C266.882 66.0682 267.513 65.6875 268.047 65.1875C268.581 64.6875 268.985 64.0682 269.257 63.3295L275.019 63.9773C274.655 65.5 273.962 66.8295 272.939 67.9659C271.928 69.0909 270.632 69.9659 269.053 70.5909C267.473 71.2045 265.667 71.5114 263.632 71.5114ZM293.041 44.8182V49.5909H277.989V44.8182H293.041ZM281.705 38.5455H287.876V63.125C287.876 63.9545 288.001 64.5909 288.251 65.0341C288.512 65.4659 288.853 65.7614 289.273 65.9205C289.694 66.0795 290.16 66.1591 290.671 66.1591C291.058 66.1591 291.41 66.1307 291.728 66.0739C292.058 66.017 292.308 65.9659 292.478 65.9205L293.518 70.7443C293.188 70.858 292.717 70.983 292.103 71.1193C291.501 71.2557 290.762 71.3352 289.887 71.358C288.342 71.4034 286.95 71.1705 285.711 70.6591C284.472 70.1364 283.489 69.3295 282.762 68.2386C282.046 67.1477 281.694 65.7841 281.705 64.1477V38.5455ZM317.991 51.7386L312.366 52.3523C312.207 51.7841 311.929 51.25 311.531 50.75C311.145 50.25 310.622 49.8466 309.963 49.5398C309.304 49.233 308.497 49.0795 307.542 49.0795C306.258 49.0795 305.179 49.358 304.304 49.9148C303.44 50.4716 303.014 51.1932 303.025 52.0795C303.014 52.8409 303.292 53.4602 303.861 53.9375C304.44 54.4148 305.395 54.8068 306.724 55.1136L311.19 56.0682C313.667 56.6023 315.508 57.4489 316.713 58.608C317.929 59.767 318.542 61.2841 318.554 63.1591C318.542 64.8068 318.059 66.2614 317.105 67.5227C316.162 68.7727 314.849 69.75 313.167 70.4545C311.486 71.1591 309.554 71.5114 307.372 71.5114C304.167 71.5114 301.588 70.8409 299.633 69.5C297.679 68.1477 296.514 66.267 296.139 63.858L302.156 63.2784C302.429 64.4602 303.008 65.3523 303.895 65.9545C304.781 66.5568 305.934 66.858 307.355 66.858C308.821 66.858 309.997 66.5568 310.883 65.9545C311.781 65.3523 312.23 64.608 312.23 63.7216C312.23 62.9716 311.94 62.3523 311.361 61.8636C310.792 61.375 309.906 61 308.701 60.7386L304.236 59.8011C301.724 59.2784 299.866 58.3977 298.662 57.1591C297.457 55.9091 296.861 54.3295 296.872 52.4205C296.861 50.8068 297.298 49.4091 298.184 48.2273C299.082 47.0341 300.326 46.1136 301.917 45.4659C303.52 44.8068 305.366 44.4773 307.457 44.4773C310.525 44.4773 312.94 45.1307 314.701 46.4375C316.474 47.7443 317.571 49.5114 317.991 51.7386Z" fill="black"/>
</svg>
