<svg width="219" height="59" viewBox="0 0 219 59" fill="none" xmlns="http://www.w3.org/2000/svg">
<path d="M87.9152 27.608C88.6545 27.3339 89.2096 26.917 89.5807 26.3573C89.9518 25.7976 90.1359 25.0717 90.1359 24.1825V24.1009C90.1359 22.926 89.6625 22.0165 88.7158 21.3722C87.7691 20.7308 86.501 20.4014 84.9115 20.3868H71.8975V35.5695H83.9678C86.3666 35.555 88.2074 35.2314 89.4901 34.5959C90.7728 33.9603 91.4127 32.87 91.4127 31.3249V31.2433C91.4127 30.1909 91.1176 29.3804 90.5274 28.812C89.9372 28.2435 89.0665 27.8441 87.9152 27.6109V27.608ZM76.6484 23.5266H82.5302C83.1876 23.5266 83.6873 23.5499 84.032 23.5995C84.3739 23.6461 84.6544 23.7686 84.8765 23.958C85.0956 24.1505 85.2066 24.4653 85.2066 24.9026C85.2066 25.3807 85.0927 25.7247 84.8677 25.9288C84.6427 26.1328 84.3681 26.2553 84.0467 26.2873C83.7252 26.3223 83.2198 26.3398 82.536 26.3398H79.4505C78.9976 26.3252 78.0656 26.3194 76.6543 26.3194V23.5295L76.6484 23.5266ZM85.8611 31.6602C85.6274 31.8847 85.3206 32.0217 84.9349 32.0712C84.5521 32.1179 83.9765 32.1441 83.2081 32.1441H82.4484C82.1474 32.1441 81.5894 32.1412 80.7712 32.1325C79.956 32.1266 78.5827 32.1208 76.6484 32.1208V29.0831H83.2081C83.9765 29.0831 84.5521 29.1064 84.9349 29.156C85.3177 29.2055 85.6274 29.3338 85.8611 29.5466C86.0949 29.7594 86.2118 30.1034 86.2118 30.5815C86.2118 31.0596 86.0949 31.4328 85.8611 31.6573V31.6602Z" fill="black"/>
<path d="M99.2262 25.8909H92.5059V29.1735H99.2262V25.8909Z" fill="black"/>
<path d="M115.889 21.0952C114.376 20.4043 112.678 20.0603 110.799 20.0603C108.921 20.0603 107.322 20.4072 105.791 21.0952C104.263 21.7861 103.051 22.7394 102.151 23.958C101.254 25.1766 100.804 26.5351 100.804 28.0394C100.804 29.5437 101.254 30.8818 102.151 32.0916C103.048 33.3014 104.266 34.2518 105.8 34.9427C107.334 35.6337 109.008 35.9777 110.817 35.9777C112.626 35.9777 114.387 35.6307 115.895 34.9427C117.403 34.2518 118.586 33.3044 119.442 32.1004C120.298 30.8963 120.728 29.5437 120.728 28.0394C120.728 26.5351 120.298 25.1562 119.442 23.9463C118.586 22.7365 117.4 21.7861 115.886 21.0952H115.889ZM114.747 30.2346C114.309 30.8497 113.736 31.322 113.029 31.6514C112.322 31.9808 111.585 32.1441 110.817 32.1441C110.048 32.1441 109.292 31.9808 108.585 31.6514C107.878 31.322 107.305 30.8526 106.867 30.2346C106.428 29.6195 106.209 28.8877 106.209 28.0394C106.209 27.191 106.425 26.4768 106.858 25.8529C107.29 25.232 107.854 24.7568 108.555 24.4274C109.254 24.0979 109.996 23.9347 110.776 23.9347C111.556 23.9347 112.284 24.095 112.997 24.4157C113.71 24.7364 114.288 25.2087 114.735 25.8325C115.179 26.4535 115.404 27.191 115.404 28.0394C115.404 28.8877 115.185 29.6195 114.747 30.2346Z" fill="black"/>
<path d="M135.434 28.2027C135.434 29.051 135.232 29.7478 134.826 30.2958C134.423 30.8439 133.917 31.2375 133.315 31.4765C132.71 31.7156 132.103 31.8351 131.486 31.8351C130.306 31.8351 129.289 31.5407 128.433 30.9518C127.577 30.3629 127.147 29.4475 127.147 28.2027V20.3868H121.882V28.2027C121.896 29.6807 122.323 31.0101 123.167 32.1937C124.012 33.3773 125.157 34.3043 126.612 34.9748C128.065 35.6454 129.683 35.9806 131.466 35.9806C133.125 35.9806 134.653 35.6424 136.05 34.9661C137.45 34.2898 138.56 33.3569 139.381 32.1645C140.202 30.9751 140.614 29.6399 140.614 28.1648V20.3898H135.434V28.2056V28.2027Z" fill="black"/>
<path d="M157.199 21.0952C155.685 20.4043 153.988 20.0603 152.109 20.0603C150.23 20.0603 148.582 20.4072 146.999 21.0952C145.415 21.7861 144.15 22.7394 143.206 23.958C142.259 25.1766 141.786 26.5351 141.786 28.0394C141.786 29.3921 142.186 30.6427 142.99 31.7826C143.79 32.9254 144.88 33.8583 146.259 34.5842C147.636 35.3101 149.14 35.7532 150.774 35.9164V38.5023H158.669L155.688 35.4879C156.951 35.1322 158.061 34.5929 159.019 33.867C159.978 33.1411 160.723 32.2811 161.252 31.2812C161.78 30.2841 162.043 29.2026 162.043 28.0394C162.043 26.5205 161.614 25.1562 160.758 23.9464C159.902 22.7365 158.715 21.7861 157.202 21.0952H157.199ZM156.068 30.2142C155.636 30.8293 155.066 31.3016 154.362 31.631C153.655 31.9604 152.913 32.1237 152.129 32.1237C151.346 32.1237 150.593 31.9604 149.827 31.631C149.059 31.3016 148.427 30.8264 147.937 30.2054C147.443 29.5845 147.197 28.8615 147.197 28.0423C147.197 27.2231 147.443 26.4797 147.937 25.8559C148.43 25.2349 149.061 24.7597 149.827 24.4303C150.595 24.1009 151.361 23.9376 152.129 23.9376C152.898 23.9376 153.655 24.1009 154.362 24.4303C155.069 24.7597 155.636 25.2349 156.068 25.8559C156.501 26.4797 156.717 27.2056 156.717 28.0423C156.717 28.879 156.501 29.602 156.068 30.2171V30.2142Z" fill="black"/>
<path d="M176.764 28.2027C176.764 29.051 176.562 29.7478 176.156 30.2958C175.753 30.8439 175.247 31.2375 174.645 31.4765C174.04 31.7156 173.433 31.8351 172.816 31.8351C171.636 31.8351 170.619 31.5407 169.763 30.9518C168.907 30.3629 168.477 29.4475 168.477 28.2027V20.3868H163.212V28.2027C163.227 29.6807 163.653 31.0101 164.498 32.1937C165.342 33.3773 166.487 34.3043 167.942 34.9748C169.395 35.6454 171.013 35.9806 172.796 35.9806C174.455 35.9806 175.983 35.6424 177.38 34.9661C178.78 34.2898 179.89 33.3569 180.711 32.1645C181.532 30.9751 181.944 29.6399 181.944 28.1648V20.3898H176.764V28.2056V28.2027Z" fill="black"/>
<path d="M199.856 24.0572L199.835 20.3868H183.528V35.5666H199.835V31.8963L188.609 31.9779V29.6603H198.109V26.0687H188.609V24.0572H199.856Z" fill="black"/>
<path d="M200.925 20.3868V24.4886V24.509H207.423V35.5666H212.481V24.509H218.897V20.3868H200.925Z" fill="black"/>
<path d="M21.4565 16.1904C23.7345 17.4254 26.2454 18.0794 28.7699 18.1686H29.8885C33.4991 18.0659 37.0718 16.8174 39.9538 14.4851C44.0411 11.18 46.1647 6.73704 46.2649 1.28069L46.2866 0.124023L45.1327 0.232123C37.2398 0.975311 31.985 4.71827 29.4633 11.3745C26.5461 3.4454 18.8996 0.145643 13.653 0.410489L12.7239 0.456431L12.6697 1.38339C12.4016 6.07223 15.0371 12.7069 21.4565 16.1904Z" fill="black"/>
<path d="M37.4862 42.3722C35.2083 41.1371 32.6974 40.4831 30.1729 40.3939H29.0543C25.4437 40.4966 21.871 41.7452 18.989 44.0774C14.9016 47.3826 12.7781 51.8255 12.6779 57.2819L12.6562 58.4385L13.8101 58.3304C21.703 57.5872 26.9578 53.8443 29.4795 47.188C32.4021 55.1198 40.0486 58.4223 45.2952 58.1548L46.2243 58.1088L46.2785 57.1819C46.5466 52.493 43.9111 45.8584 37.4917 42.3749L37.4862 42.3722Z" fill="black"/>
<path d="M42.4376 21.2873C41.1998 23.5601 40.5443 26.0654 40.4549 28.5841V29.7002C40.5578 33.3027 41.8092 36.8673 44.1468 39.7427C47.4594 43.8208 51.9124 45.9396 57.3812 46.0395L58.5404 46.0612L58.4321 44.9099C57.6872 37.0348 53.9358 31.792 47.2644 29.2759C55.2142 26.3599 58.5242 18.7308 58.256 13.496L58.21 12.5691L57.2809 12.515C52.5815 12.2475 45.9318 14.877 42.4403 21.2819L42.4376 21.2873Z" fill="black"/>
<path d="M11.6811 29.2867C3.73125 32.2027 0.421304 39.8318 0.689458 45.0666L0.735505 45.9935L1.66457 46.0476C6.36405 46.3151 13.0137 43.6856 16.5052 37.2807C17.743 35.0079 18.3985 32.5026 18.4879 29.9839V28.8678C18.385 25.2653 17.1336 21.7007 14.796 18.8253C11.4834 14.7472 7.03037 12.6284 1.56164 12.5285L0.402344 12.5068L0.510687 13.6581C1.25556 21.5332 5.00702 26.776 11.6784 29.2921L11.6811 29.2867Z" fill="black"/>
</svg>
