<svg width="122" height="32" viewBox="0 0 122 32" fill="none" xmlns="http://www.w3.org/2000/svg">
<path d="M18.28 15.013C18.2931 13.9947 18.5636 12.9963 19.0663 12.1107C19.5689 11.225 20.2874 10.4809 21.155 9.94755C20.6039 9.16046 19.8768 8.51272 19.0316 8.05577C18.1863 7.59883 17.2462 7.34526 16.2858 7.31521C14.2372 7.10018 12.2511 8.54109 11.2072 8.54109C10.143 8.54109 8.53567 7.33656 6.80485 7.37217C5.6853 7.40834 4.59421 7.7339 3.6379 8.31712C2.68158 8.90035 1.89264 9.72134 1.34796 10.7001C-1.01148 14.7851 0.74845 20.7887 3.0086 24.0908C4.1394 25.7077 5.46099 27.5138 7.19025 27.4497C8.88244 27.3795 9.51444 26.3707 11.5571 26.3707C13.5807 26.3707 14.1737 27.4497 15.938 27.409C17.7538 27.3795 18.8979 25.7849 19.989 24.1527C20.8015 23.0006 21.4267 21.7273 21.8414 20.3799C20.7865 19.9337 19.8862 19.1869 19.2529 18.2325C18.6196 17.2781 18.2812 16.1584 18.28 15.013Z" fill="white"/>
<path d="M14.948 5.1435C15.9381 3.95499 16.4259 2.42735 16.3077 0.88501C14.7952 1.04388 13.398 1.76679 12.3945 2.9097C11.9039 3.46805 11.5282 4.11761 11.2888 4.82126C11.0494 5.52491 10.951 6.26885 10.9992 7.01054C11.7558 7.01833 12.5043 6.85435 13.1883 6.53095C13.8723 6.20755 14.474 5.73316 14.948 5.1435Z" fill="white"/>
<path d="M39.6718 23.3563H33.8972L32.5104 27.4511H30.0645L35.5341 12.3014H38.0753L43.545 27.4511H41.0574L39.6718 23.3563ZM34.4952 21.4668H39.0726L36.8161 14.8212H36.753L34.4952 21.4668Z" fill="white"/>
<path d="M55.3574 21.9291C55.3574 25.3615 53.5203 27.5668 50.748 27.5668C50.0457 27.6035 49.3472 27.4417 48.7326 27.0999C48.118 26.7582 47.612 26.2502 47.2727 25.6343H47.2202V31.1052H44.953V16.4058H47.1476V18.2429H47.1893C47.5442 17.6299 48.0587 17.1246 48.678 16.7808C49.2973 16.4369 49.9983 16.2674 50.7063 16.2902C53.5095 16.2903 55.3574 18.5062 55.3574 21.9291ZM53.0271 21.9291C53.0271 19.6929 51.8714 18.2227 50.1082 18.2227C48.3759 18.2227 47.2107 19.7238 47.2107 21.9291C47.2107 24.1546 48.3759 25.645 50.1082 25.645C51.8714 25.645 53.0271 24.1856 53.0271 21.9291Z" fill="white"/>
<path d="M67.5147 21.9291C67.5147 25.3615 65.6775 27.5667 62.9052 27.5667C62.2029 27.6035 61.5045 27.4417 60.8898 27.0999C60.2752 26.7582 59.7693 26.2502 59.4299 25.6343H59.3774V31.1051H57.1102V16.4058H59.3048V18.2429H59.3465C59.7014 17.6299 60.2159 17.1246 60.8352 16.7808C61.4545 16.4369 62.1555 16.2674 62.8634 16.2902C65.6668 16.2902 67.5147 18.5062 67.5147 21.9291ZM65.1843 21.9291C65.1843 19.6929 64.0287 18.2227 62.2654 18.2227C60.5331 18.2227 59.3679 19.7238 59.3679 21.9291C59.3679 24.1546 60.5331 25.645 62.2654 25.645C64.0287 25.645 65.1843 24.1856 65.1843 21.9291H65.1843Z" fill="white"/>
<path d="M75.5485 23.2301C75.7165 24.7324 77.176 25.7188 79.1703 25.7188C81.0813 25.7188 82.4562 24.7324 82.4562 23.3778C82.4562 22.2019 81.627 21.4978 79.6636 21.0152L77.7002 20.5422C74.9183 19.8703 73.6268 18.5693 73.6268 16.4582C73.6268 13.8443 75.9048 12.0488 79.1394 12.0488C82.3406 12.0488 84.5352 13.8443 84.609 16.4582H82.3204C82.1833 14.9463 80.9336 14.0337 79.1072 14.0337C77.2808 14.0337 76.031 14.957 76.031 16.3009C76.031 17.372 76.8292 18.0022 78.7819 18.4847L80.4511 18.8945C83.5594 19.6296 84.8509 20.8782 84.8509 23.0942C84.8509 25.9285 82.5932 27.7036 79.0023 27.7036C75.6426 27.7036 73.3742 25.9702 73.2277 23.23L75.5485 23.2301Z" fill="white"/>
<path d="M89.7444 13.7919V16.4058H91.8448V18.2012H89.7444V24.2904C89.7444 25.2364 90.165 25.6772 91.0883 25.6772C91.3376 25.6728 91.5866 25.6553 91.8341 25.6247V27.4094C91.419 27.487 90.997 27.5221 90.5748 27.5143C88.3386 27.5143 87.4665 26.6743 87.4665 24.5322V18.2012H85.8605V16.4058H87.4664V13.7919H89.7444Z" fill="white"/>
<path d="M93.0616 21.929C93.0616 18.4537 95.1084 16.2699 98.3002 16.2699C101.503 16.2699 103.54 18.4537 103.54 21.929C103.54 25.4138 101.513 27.5881 98.3002 27.5881C95.0881 27.5881 93.0616 25.4138 93.0616 21.929ZM101.23 21.929C101.23 19.545 100.137 18.138 98.3002 18.138C96.4631 18.138 95.3717 19.5557 95.3717 21.929C95.3717 24.3225 96.4631 25.7188 98.3002 25.7188C100.137 25.7188 101.23 24.3225 101.23 21.929H101.23Z" fill="white"/>
<path d="M105.409 16.4058H107.572V18.2858H107.624C107.771 17.6987 108.115 17.1798 108.598 16.8164C109.082 16.4529 109.676 16.2672 110.281 16.2902C110.542 16.2893 110.803 16.3177 111.058 16.3748V18.4955C110.728 18.3947 110.384 18.3484 110.039 18.3585C109.71 18.3451 109.381 18.4032 109.077 18.5287C108.772 18.6543 108.498 18.8443 108.273 19.0857C108.049 19.3271 107.879 19.6142 107.776 19.9274C107.673 20.2405 107.639 20.5722 107.677 20.8997V27.4512H105.409L105.409 16.4058Z" fill="white"/>
<path d="M121.511 24.2069C121.206 26.212 119.253 27.5881 116.755 27.5881C113.542 27.5881 111.547 25.4352 111.547 21.9814C111.547 18.5169 113.552 16.2699 116.659 16.2699C119.715 16.2699 121.637 18.3691 121.637 21.7181V22.4949H113.836V22.6319C113.8 23.0384 113.851 23.4479 113.985 23.8332C114.119 24.2186 114.334 24.5709 114.615 24.8668C114.896 25.1627 115.237 25.3954 115.615 25.5495C115.993 25.7036 116.399 25.7755 116.807 25.7605C117.343 25.8107 117.881 25.6866 118.34 25.4067C118.8 25.1268 119.157 24.706 119.358 24.2069L121.511 24.2069ZM113.847 20.9104H119.369C119.389 20.5449 119.334 20.1791 119.206 19.836C119.078 19.4929 118.881 19.18 118.626 18.9167C118.372 18.6535 118.066 18.4457 117.728 18.3064C117.389 18.167 117.025 18.0992 116.659 18.107C116.29 18.1048 115.924 18.1758 115.583 18.3157C115.241 18.4557 114.93 18.662 114.669 18.9226C114.407 19.1832 114.2 19.4931 114.059 19.8342C113.918 20.1754 113.846 20.5412 113.847 20.9104V20.9104Z" fill="white"/>
<path d="M34.2105 0.897665C34.6858 0.863555 35.1628 0.935363 35.607 1.10791C36.0512 1.28045 36.4516 1.54944 36.7793 1.89545C37.1069 2.24147 37.3537 2.6559 37.5018 3.10884C37.6499 3.56179 37.6957 4.04196 37.6358 4.51472C37.6358 6.84031 36.3788 8.1771 34.2105 8.1771H31.5811V0.897665H34.2105ZM32.7117 7.14763H34.0842C34.4239 7.16794 34.7638 7.11225 35.0792 6.98462C35.3946 6.85699 35.6776 6.66064 35.9075 6.40985C36.1375 6.15907 36.3086 5.86016 36.4085 5.53489C36.5084 5.20962 36.5345 4.86617 36.4849 4.52955C36.5309 4.19426 36.5021 3.85294 36.4007 3.53006C36.2993 3.20717 36.1278 2.91071 35.8983 2.66192C35.6689 2.41313 35.3873 2.21817 35.0736 2.091C34.76 1.96383 34.4221 1.90761 34.0842 1.92637H32.7117V7.14763Z" fill="white"/>
<path d="M38.9136 5.42761C38.879 5.0666 38.9203 4.70235 39.0348 4.35823C39.1493 4.01411 39.3344 3.69772 39.5784 3.42934C39.8223 3.16097 40.1196 2.94654 40.4513 2.7998C40.7829 2.65307 41.1416 2.57727 41.5042 2.57727C41.8669 2.57727 42.2256 2.65307 42.5572 2.7998C42.8889 2.94654 43.1862 3.16097 43.4301 3.42934C43.674 3.69772 43.8592 4.01411 43.9737 4.35823C44.0882 4.70235 44.1294 5.0666 44.0949 5.42761C44.1301 5.789 44.0893 6.15375 43.9751 6.49842C43.8609 6.8431 43.6759 7.16007 43.4319 7.42897C43.1879 7.69788 42.8904 7.91276 42.5584 8.05981C42.2264 8.20686 41.8673 8.28282 41.5042 8.28282C41.1411 8.28282 40.7821 8.20686 40.4501 8.05981C40.1181 7.91276 39.8205 7.69788 39.5766 7.42897C39.3326 7.16007 39.1475 6.8431 39.0334 6.49842C38.9192 6.15375 38.8784 5.789 38.9136 5.42761ZM42.9798 5.42761C42.9798 4.23682 42.4448 3.54046 41.506 3.54046C40.5636 3.54046 40.0335 4.23682 40.0335 5.42762C40.0335 6.62795 40.5637 7.31895 41.506 7.31895C42.4448 7.31894 42.9798 6.62317 42.9798 5.42761H42.9798Z" fill="white"/>
<path d="M50.9817 8.17697H49.8571L48.7217 4.131H48.6359L47.5053 8.17697H46.3913L44.8771 2.68347H45.9767L46.9608 6.87533H47.0418L48.1713 2.68347H49.2114L50.3408 6.87533H50.4266L51.4059 2.68347H52.49L50.9817 8.17697Z" fill="white"/>
<path d="M53.7636 2.68335H54.8072V3.55604H54.8882C55.0257 3.2426 55.2575 2.97985 55.5513 2.80441C55.8452 2.62897 56.1865 2.54958 56.5276 2.57731C56.7949 2.55721 57.0633 2.59751 57.3129 2.69523C57.5625 2.79294 57.7869 2.94557 57.9695 3.1418C58.1521 3.33802 58.2882 3.57282 58.3678 3.8288C58.4473 4.08478 58.4683 4.35537 58.429 4.62053V8.17678H57.3449V4.89279C57.3449 4.00997 56.9612 3.57093 56.1594 3.57093C55.978 3.56248 55.7968 3.59337 55.6284 3.66148C55.4599 3.72959 55.3082 3.83332 55.1836 3.96555C55.059 4.09777 54.9645 4.25538 54.9065 4.42755C54.8486 4.59973 54.8285 4.78241 54.8477 4.96307V8.17684H53.7635L53.7636 2.68335Z" fill="white"/>
<path d="M60.1561 0.539062H61.2403V8.17705H60.1561V0.539062Z" fill="white"/>
<path d="M62.7486 5.42771C62.714 5.06667 62.7554 4.70241 62.8699 4.35827C62.9844 4.01414 63.1696 3.69774 63.4135 3.42936C63.6575 3.16098 63.9548 2.94654 64.2865 2.79981C64.6182 2.65307 64.9768 2.57727 65.3395 2.57727C65.7022 2.57727 66.0609 2.65307 66.3926 2.79981C66.7243 2.94654 67.0216 3.16098 67.2655 3.42936C67.5095 3.69774 67.6947 4.01414 67.8092 4.35827C67.9237 4.70241 67.965 5.06667 67.9305 5.42771C67.9656 5.78911 67.9248 6.15387 67.8106 6.49854C67.6964 6.84322 67.5113 7.16018 67.2673 7.42908C67.0233 7.69797 66.7257 7.91284 66.3937 8.05989C66.0617 8.20693 65.7026 8.28289 65.3395 8.28289C64.9764 8.28289 64.6173 8.20693 64.2853 8.05989C63.9533 7.91284 63.6558 7.69797 63.4118 7.42908C63.1677 7.16018 62.9827 6.84322 62.8685 6.49854C62.7543 6.15387 62.7134 5.78911 62.7486 5.42771ZM66.8148 5.42771C66.8148 4.23692 66.2798 3.54056 65.341 3.54056C64.3986 3.54056 63.8685 4.23693 63.8685 5.42773C63.8685 6.62805 64.3987 7.31905 65.341 7.31905C66.2798 7.31904 66.8148 6.62327 66.8148 5.42771H66.8148Z" fill="white"/>
<path d="M69.0693 6.62334C69.0693 5.63449 69.8056 5.06441 71.1126 4.98339L72.6006 4.89762V4.42345C72.6006 3.84324 72.217 3.51561 71.4759 3.51561C70.8707 3.51561 70.4514 3.7378 70.331 4.1262H69.2814C69.3922 3.18261 70.2798 2.57739 71.526 2.57739C72.9032 2.57739 73.68 3.26302 73.68 4.42345V8.17692H72.6364V7.4049H72.5506C72.3765 7.68183 72.132 7.90758 71.8421 8.05912C71.5522 8.21065 71.2273 8.28254 70.9005 8.26743C70.6699 8.29142 70.4368 8.26681 70.2163 8.1952C69.9957 8.12359 69.7927 8.00656 69.6201 7.85166C69.4476 7.69676 69.3095 7.50743 69.2146 7.29586C69.1197 7.0843 69.0702 6.8552 69.0693 6.62334ZM72.6006 6.15393V5.69465L71.2591 5.78043C70.5026 5.83106 70.1594 6.0884 70.1594 6.5727C70.1594 7.06712 70.5883 7.35484 71.1781 7.35484C71.3509 7.37234 71.5255 7.35489 71.6914 7.30354C71.8573 7.25219 72.0112 7.16799 72.144 7.05594C72.2767 6.9439 72.3855 6.8063 72.4639 6.65134C72.5424 6.49638 72.5889 6.32722 72.6006 6.15393Z" fill="white"/>
<path d="M75.1067 5.42795C75.1067 3.69209 75.999 2.59244 77.387 2.59244C77.7303 2.57662 78.0711 2.65885 78.3694 2.82952C78.6677 3.00019 78.9113 3.25224 79.0716 3.55623H79.1527V0.539062H80.2368V8.17705H79.1979V7.30912H79.1121C78.9394 7.61106 78.6873 7.85998 78.3832 8.02892C78.0792 8.19787 77.7346 8.2804 77.387 8.26759C75.9895 8.26765 75.1067 7.16797 75.1067 5.42795ZM76.2266 5.42795C76.2266 6.59313 76.7759 7.29426 77.6944 7.29426C78.6082 7.29426 79.1729 6.58301 79.1729 5.43272C79.1729 4.28779 78.6023 3.5664 77.6944 3.5664C76.7818 3.5664 76.2266 4.27229 76.2266 5.42795H76.2266Z" fill="white"/>
<path d="M84.7232 5.42773C84.6887 5.06672 84.73 4.70247 84.8444 4.35835C84.9589 4.01423 85.1441 3.69784 85.388 3.42946C85.6319 3.16109 85.9292 2.94666 86.2609 2.79992C86.5925 2.65319 86.9512 2.57739 87.3139 2.57739C87.6765 2.57739 88.0352 2.65319 88.3668 2.79992C88.6985 2.94666 88.9958 3.16109 89.2397 3.42946C89.4837 3.69784 89.6688 4.01423 89.7833 4.35835C89.8978 4.70247 89.9391 5.06672 89.9045 5.42773C89.9397 5.78912 89.8989 6.15387 89.7847 6.49855C89.6706 6.84322 89.4855 7.16019 89.2415 7.4291C88.9976 7.698 88.7 7.91288 88.368 8.05993C88.036 8.20698 87.677 8.28295 87.3139 8.28295C86.9508 8.28295 86.5917 8.20698 86.2597 8.05993C85.9277 7.91288 85.6302 7.698 85.3862 7.4291C85.1422 7.16019 84.9572 6.84322 84.843 6.49855C84.7288 6.15387 84.688 5.78912 84.7232 5.42773ZM88.7894 5.42773C88.7894 4.23694 88.2545 3.54058 87.3157 3.54058C86.3733 3.54058 85.8431 4.23695 85.8431 5.42775C85.8431 6.62807 86.3733 7.31907 87.3157 7.31907C88.2545 7.31906 88.7894 6.62329 88.7894 5.42773Z" fill="white"/>
<path d="M91.3574 2.68323H92.4011V3.55592H92.4821C92.6195 3.24248 92.8513 2.97973 93.1452 2.80429C93.4391 2.62885 93.7803 2.54946 94.1215 2.57718C94.3888 2.55709 94.6571 2.59739 94.9067 2.69511C95.1564 2.79282 95.3808 2.94545 95.5634 3.14167C95.746 3.3379 95.8821 3.5727 95.9617 3.82868C96.0412 4.08465 96.0621 4.35525 96.0229 4.62041V8.17666H94.9387V4.89266C94.9387 4.00985 94.5551 3.57081 93.7533 3.57081C93.5718 3.56236 93.3907 3.59325 93.2222 3.66136C93.0538 3.72947 92.9021 3.8332 92.7775 3.96542C92.6529 4.09765 92.5584 4.25525 92.5004 4.42743C92.4424 4.59961 92.4224 4.78229 92.4416 4.96295V8.17672H91.3574V2.68323Z" fill="white"/>
<path d="M102.15 1.31592V2.70865H103.34V3.62186H102.15V6.44664C102.15 7.02208 102.387 7.27405 102.927 7.27405C103.065 7.27361 103.203 7.26526 103.34 7.24903V8.1521C103.145 8.18693 102.948 8.20546 102.75 8.2075C101.545 8.2075 101.064 7.78336 101.064 6.72422V3.62181H100.192V2.7086H101.064V1.31592H102.15Z" fill="white"/>
<path d="M104.823 0.539062H105.897V3.56639H105.983C106.127 3.25002 106.365 2.98578 106.665 2.80968C106.965 2.63358 107.311 2.55418 107.658 2.5823C107.924 2.56783 108.19 2.61223 108.436 2.71232C108.683 2.81241 108.905 2.96572 109.086 3.16133C109.266 3.35694 109.402 3.59002 109.482 3.84394C109.562 4.09786 109.585 4.36637 109.55 4.6303V8.17707H108.465V4.89776C108.465 4.02029 108.056 3.5759 107.29 3.5759C107.104 3.56062 106.916 3.58624 106.741 3.65096C106.565 3.71569 106.406 3.81796 106.274 3.95061C106.143 4.08327 106.042 4.24311 105.978 4.41896C105.914 4.5948 105.89 4.7824 105.907 4.96864V8.17704H104.823L104.823 0.539062Z" fill="white"/>
<path d="M115.87 6.69361C115.723 7.19568 115.404 7.62997 114.969 7.92051C114.534 8.21105 114.01 8.33933 113.49 8.28292C113.128 8.29247 112.768 8.22315 112.436 8.07977C112.103 7.93638 111.806 7.72237 111.565 7.45259C111.323 7.18281 111.143 6.86371 111.038 6.51745C110.932 6.1712 110.903 5.80607 110.952 5.44742C110.904 5.08766 110.934 4.72175 111.039 4.37446C111.145 4.02716 111.324 3.70659 111.564 3.43444C111.804 3.1623 112.1 2.94493 112.431 2.79706C112.763 2.64919 113.122 2.57427 113.485 2.57736C115.014 2.57736 115.936 3.62167 115.936 5.34672V5.72503H112.057V5.78578C112.04 5.98738 112.065 6.1903 112.131 6.38153C112.197 6.57276 112.302 6.74809 112.44 6.89626C112.578 7.04443 112.745 7.16219 112.931 7.24197C113.117 7.32175 113.317 7.36181 113.52 7.35956C113.779 7.39069 114.042 7.344 114.274 7.2254C114.507 7.10681 114.699 6.92169 114.827 6.69357L115.87 6.69361ZM112.057 4.92321H114.831C114.845 4.73883 114.82 4.55364 114.758 4.37953C114.696 4.20541 114.598 4.04623 114.47 3.9122C114.343 3.77818 114.189 3.67228 114.018 3.60131C113.848 3.53033 113.664 3.49586 113.479 3.5001C113.292 3.49774 113.106 3.53295 112.932 3.60364C112.758 3.67433 112.6 3.77908 112.468 3.9117C112.335 4.04433 112.231 4.20216 112.16 4.37588C112.089 4.5496 112.054 4.7357 112.057 4.92321H112.057Z" fill="white"/>
</svg>
